<svg width="359" height="127" viewBox="0 0 359 127" fill="none" xmlns="http://www.w3.org/2000/svg">
<path d="M81.384 22.984C83.5173 22.984 85.1387 23.24 86.248 23.752C87.3573 24.2213 88.3387 24.7547 89.192 25.352C89.704 25.6507 90.1093 25.8853 90.408 26.056C90.7493 26.184 91.0693 26.248 91.368 26.248C91.7947 26.248 92.0933 26.0133 92.264 25.544C92.4773 25.0747 92.648 24.3707 92.776 23.432H94.248C94.2053 24.1573 94.1413 25.032 94.056 26.056C94.0133 27.0373 93.9707 28.36 93.928 30.024C93.928 31.6453 93.928 33.8 93.928 36.488H92.456C92.328 34.44 91.88 32.4773 91.112 30.6C90.344 28.7227 89.2133 27.1867 87.72 25.992C86.2693 24.7973 84.3493 24.2 81.96 24.2C79.6987 24.2 77.8213 24.8827 76.328 26.248C74.8773 27.6133 74.152 29.4053 74.152 31.624C74.152 33.544 74.6427 35.1653 75.624 36.488C76.6053 37.768 77.9067 38.9413 79.528 40.008C81.192 41.032 82.984 42.1413 84.904 43.336C87.1227 44.7013 89.0853 46.0667 90.792 47.432C92.5413 48.7547 93.9067 50.2267 94.888 51.848C95.912 53.4693 96.424 55.432 96.424 57.736C96.424 60.4667 95.8053 62.728 94.568 64.52C93.3307 66.312 91.688 67.656 89.64 68.552C87.592 69.448 85.3307 69.896 82.856 69.896C80.5947 69.896 78.8027 69.64 77.48 69.128C76.1573 68.616 75.0267 68.0827 74.088 67.528C73.1493 66.9307 72.424 66.632 71.912 66.632C71.4853 66.632 71.1653 66.8667 70.952 67.336C70.7813 67.8053 70.632 68.5093 70.504 69.448H69.032C69.1173 68.552 69.16 67.5067 69.16 66.312C69.2027 65.0747 69.224 63.4747 69.224 61.512C69.2667 59.5493 69.288 57.0747 69.288 54.088H70.76C70.9307 56.648 71.4 59.0373 72.168 61.256C72.9787 63.4747 74.1947 65.2667 75.816 66.632C77.48 67.9547 79.6773 68.616 82.408 68.616C83.816 68.616 85.1387 68.3387 86.376 67.784C87.656 67.1867 88.7013 66.2693 89.512 65.032C90.3227 63.752 90.728 62.1093 90.728 60.104C90.728 58.3547 90.3013 56.84 89.448 55.56C88.6373 54.2373 87.4853 53.0213 85.992 51.912C84.4987 50.76 82.7493 49.5867 80.744 48.392C78.7387 47.1547 76.8613 45.896 75.112 44.616C73.3627 43.336 71.9547 41.864 70.888 40.2C69.864 38.4933 69.352 36.4453 69.352 34.056C69.352 31.5387 69.9067 29.4693 71.016 27.848C72.168 26.184 73.6613 24.968 75.496 24.2C77.3307 23.3893 79.2933 22.984 81.384 22.984ZM111.723 25.416V36.104H121.195V37.384H111.723V62.152C111.723 64.1573 112.085 65.5653 112.811 66.376C113.536 67.1867 114.539 67.592 115.819 67.592C117.099 67.592 118.208 67.08 119.147 66.056C120.085 64.9893 120.896 63.2187 121.579 60.744L122.859 61.064C122.432 63.5387 121.579 65.6293 120.299 67.336C119.061 69.0427 117.141 69.896 114.539 69.896C113.088 69.896 111.893 69.704 110.955 69.32C110.016 68.9787 109.184 68.4667 108.459 67.784C107.52 66.8027 106.859 65.6293 106.475 64.264C106.133 62.8987 105.963 61.0853 105.963 58.824V37.384H99.8185V36.104H105.963V26.312C107.029 26.2693 108.053 26.184 109.035 26.056C110.016 25.928 110.912 25.7147 111.723 25.416ZM139.724 35.144C142.454 35.144 144.908 35.7413 147.084 36.936C149.26 38.1307 150.988 40.008 152.268 42.568C153.59 45.128 154.252 48.456 154.252 52.552C154.252 56.648 153.59 59.976 152.268 62.536C150.988 65.0533 149.26 66.9093 147.084 68.104C144.908 69.2987 142.454 69.896 139.724 69.896C137.036 69.896 134.582 69.2987 132.364 68.104C130.188 66.9093 128.438 65.0533 127.116 62.536C125.836 59.976 125.196 56.648 125.196 52.552C125.196 48.456 125.836 45.128 127.116 42.568C128.438 40.008 130.188 38.1307 132.364 36.936C134.582 35.7413 137.036 35.144 139.724 35.144ZM139.724 36.424C137.292 36.424 135.286 37.6827 133.708 40.2C132.172 42.7173 131.404 46.8347 131.404 52.552C131.404 58.2693 132.172 62.3867 133.708 64.904C135.286 67.3787 137.292 68.616 139.724 68.616C142.156 68.616 144.14 67.3787 145.676 64.904C147.254 62.3867 148.044 58.2693 148.044 52.552C148.044 46.8347 147.254 42.7173 145.676 40.2C144.14 37.6827 142.156 36.424 139.724 36.424ZM179.01 35.144C180.162 35.144 181.165 35.3787 182.018 35.848C182.914 36.3173 183.597 36.936 184.066 37.704C184.578 38.4293 184.834 39.2613 184.834 40.2C184.834 41.2667 184.493 42.2053 183.81 43.016C183.17 43.8267 182.295 44.232 181.186 44.232C180.29 44.232 179.501 43.9547 178.818 43.4C178.135 42.8027 177.794 41.9707 177.794 40.904C177.794 40.0933 178.007 39.4107 178.434 38.856C178.903 38.2587 179.415 37.7893 179.97 37.448C179.671 37.0213 179.223 36.808 178.626 36.808C177.303 36.808 176.087 37.2133 174.978 38.024C173.869 38.792 172.93 39.7947 172.162 41.032C171.394 42.2693 170.797 43.592 170.37 45C169.943 46.3653 169.73 47.6453 169.73 48.84V62.408C169.73 64.4987 170.327 65.9067 171.522 66.632C172.759 67.3147 174.423 67.656 176.514 67.656V69C175.533 68.9573 174.146 68.9147 172.354 68.872C170.562 68.7867 168.663 68.744 166.658 68.744C165.207 68.744 163.757 68.7867 162.306 68.872C160.898 68.9147 159.831 68.9573 159.106 69V67.656C160.855 67.656 162.093 67.336 162.818 66.696C163.586 66.056 163.97 64.84 163.97 63.048V43.016C163.97 41.096 163.629 39.688 162.946 38.792C162.263 37.8533 160.983 37.384 159.106 37.384V36.04C160.471 36.168 161.794 36.232 163.074 36.232C164.311 36.232 165.485 36.168 166.594 36.04C167.746 35.8693 168.791 35.6347 169.73 35.336V43.336C170.199 42.0987 170.861 40.8613 171.714 39.624C172.61 38.344 173.677 37.2773 174.914 36.424C176.151 35.5707 177.517 35.144 179.01 35.144ZM217.366 36.04V37.32C216.555 37.4053 215.809 37.768 215.126 38.408C214.443 39.048 213.803 40.1787 213.206 41.8L202.71 69.32H201.622L189.846 40.968C189.035 39.304 188.225 38.3013 187.414 37.96C186.646 37.576 186.006 37.384 185.494 37.384V36.04C186.433 36.168 187.414 36.2747 188.438 36.36C189.462 36.4027 190.571 36.424 191.766 36.424C193.089 36.424 194.475 36.3813 195.926 36.296C197.419 36.2107 198.806 36.1253 200.086 36.04V37.384C199.019 37.384 198.059 37.4693 197.206 37.64C196.395 37.768 195.883 38.216 195.67 38.984C195.457 39.7093 195.713 40.968 196.438 42.76L204.31 62.28L203.926 62.408L211.222 43.336C211.777 41.928 211.99 40.8187 211.862 40.008C211.777 39.1547 211.35 38.5147 210.582 38.088C209.814 37.6613 208.662 37.4053 207.126 37.32V36.04C207.894 36.0827 208.555 36.1253 209.11 36.168C209.665 36.168 210.198 36.1893 210.71 36.232C211.265 36.232 211.862 36.232 212.502 36.232C213.483 36.232 214.358 36.2107 215.126 36.168C215.937 36.1253 216.683 36.0827 217.366 36.04ZM202.71 69.32L200.534 74.888C200.107 75.9547 199.659 76.8507 199.19 77.576C198.763 78.3013 198.294 78.8987 197.782 79.368C197.099 80.008 196.289 80.4347 195.35 80.648C194.411 80.904 193.558 81.032 192.79 81.032C191.979 81.032 191.233 80.8827 190.55 80.584C189.91 80.2853 189.398 79.8373 189.014 79.24C188.63 78.6853 188.438 78.0027 188.438 77.192C188.438 76.168 188.737 75.336 189.334 74.696C189.931 74.0987 190.763 73.8 191.83 73.8C192.726 73.8 193.494 74.056 194.134 74.568C194.774 75.08 195.094 75.8267 195.094 76.808C195.094 77.5333 194.923 78.1307 194.582 78.6C194.241 79.0693 193.835 79.432 193.366 79.688C193.451 79.7307 193.515 79.752 193.558 79.752C193.643 79.752 193.707 79.752 193.75 79.752C194.902 79.752 195.926 79.3467 196.822 78.536C197.718 77.768 198.507 76.5093 199.19 74.76L201.494 68.808L202.71 69.32ZM238.864 35.144C242.363 35.144 245.264 36.5947 247.568 39.496C249.872 42.3547 251.024 46.7067 251.024 52.552C251.024 56.392 250.363 59.6133 249.04 62.216C247.76 64.776 246.032 66.696 243.856 67.976C241.68 69.256 239.312 69.896 236.752 69.896C234.619 69.896 232.549 69.2987 230.544 68.104C228.581 66.8667 227.109 65.0533 226.128 62.664L227.408 63.368C228.475 65.0747 229.797 66.3547 231.376 67.208C232.955 68.0187 234.576 68.424 236.24 68.424C239.099 68.424 241.232 67.144 242.64 64.584C244.091 61.9813 244.816 57.9707 244.816 52.552C244.816 49.096 244.539 46.216 243.984 43.912C243.429 41.608 242.576 39.9013 241.424 38.792C240.272 37.64 238.8 37.064 237.008 37.064C235.045 37.064 233.211 37.96 231.504 39.752C229.84 41.5013 228.816 44.0827 228.432 47.496L227.664 46.6C228.133 42.9733 229.392 40.1573 231.44 38.152C233.531 36.1467 236.005 35.144 238.864 35.144ZM228.88 18.888V65.672C228.325 66.1413 227.749 66.632 227.152 67.144C226.597 67.6133 226.043 68.0827 225.488 68.552C224.933 69.0213 224.357 69.512 223.76 70.024L222.672 69.576C222.843 68.9787 222.949 68.3813 222.992 67.784C223.077 67.144 223.12 66.504 223.12 65.864V26.568C223.12 24.648 222.779 23.24 222.096 22.344C221.413 21.4053 220.133 20.936 218.256 20.936V19.592C219.621 19.72 220.944 19.784 222.224 19.784C223.461 19.784 224.635 19.72 225.744 19.592C226.896 19.4213 227.941 19.1867 228.88 18.888ZM271.599 35.144C274.329 35.144 276.783 35.7413 278.959 36.936C281.135 38.1307 282.863 40.008 284.143 42.568C285.465 45.128 286.127 48.456 286.127 52.552C286.127 56.648 285.465 59.976 284.143 62.536C282.863 65.0533 281.135 66.9093 278.959 68.104C276.783 69.2987 274.329 69.896 271.599 69.896C268.911 69.896 266.457 69.2987 264.239 68.104C262.063 66.9093 260.313 65.0533 258.991 62.536C257.711 59.976 257.071 56.648 257.071 52.552C257.071 48.456 257.711 45.128 258.991 42.568C260.313 40.008 262.063 38.1307 264.239 36.936C266.457 35.7413 268.911 35.144 271.599 35.144ZM271.599 36.424C269.167 36.424 267.161 37.6827 265.583 40.2C264.047 42.7173 263.279 46.8347 263.279 52.552C263.279 58.2693 264.047 62.3867 265.583 64.904C267.161 67.3787 269.167 68.616 271.599 68.616C274.031 68.616 276.015 67.3787 277.551 64.904C279.129 62.3867 279.919 58.2693 279.919 52.552C279.919 46.8347 279.129 42.7173 277.551 40.2C276.015 37.6827 274.031 36.424 271.599 36.424ZM306.661 35.144C309.392 35.144 311.845 35.7413 314.021 36.936C316.197 38.1307 317.925 40.008 319.205 42.568C320.528 45.128 321.189 48.456 321.189 52.552C321.189 56.648 320.528 59.976 319.205 62.536C317.925 65.0533 316.197 66.9093 314.021 68.104C311.845 69.2987 309.392 69.896 306.661 69.896C303.973 69.896 301.52 69.2987 299.301 68.104C297.125 66.9093 295.376 65.0533 294.053 62.536C292.773 59.976 292.133 56.648 292.133 52.552C292.133 48.456 292.773 45.128 294.053 42.568C295.376 40.008 297.125 38.1307 299.301 36.936C301.52 35.7413 303.973 35.144 306.661 35.144ZM306.661 36.424C304.229 36.424 302.224 37.6827 300.645 40.2C299.109 42.7173 298.341 46.8347 298.341 52.552C298.341 58.2693 299.109 62.3867 300.645 64.904C302.224 67.3787 304.229 68.616 306.661 68.616C309.093 68.616 311.077 67.3787 312.613 64.904C314.192 62.3867 314.981 58.2693 314.981 52.552C314.981 46.8347 314.192 42.7173 312.613 40.2C311.077 37.6827 309.093 36.424 306.661 36.424ZM335.467 18.824V63.048C335.467 64.84 335.787 66.056 336.427 66.696C337.067 67.336 338.155 67.656 339.691 67.656V69C339.008 68.9573 337.984 68.9147 336.619 68.872C335.296 68.7867 333.952 68.744 332.587 68.744C331.136 68.744 329.664 68.7867 328.171 68.872C326.677 68.9147 325.568 68.9573 324.843 69V67.656C326.592 67.656 327.829 67.336 328.555 66.696C329.323 66.056 329.707 64.84 329.707 63.048V26.504C329.707 24.584 329.365 23.176 328.683 22.28C328 21.3413 326.72 20.872 324.843 20.872V19.528C326.208 19.656 327.531 19.72 328.811 19.72C330.048 19.72 331.221 19.656 332.331 19.528C333.483 19.3573 334.528 19.1227 335.467 18.824ZM355.819 36.04V37.32C354.752 37.4053 353.749 37.704 352.811 38.216C351.872 38.6853 350.955 39.3893 350.059 40.328L341.035 49.8L341.931 48.008L353.835 64.328C354.56 65.3093 355.243 66.0773 355.882 66.632C356.565 67.1867 357.376 67.528 358.315 67.656V69C357.845 68.9573 357.099 68.9147 356.075 68.872C355.093 68.7867 354.112 68.744 353.131 68.744C351.808 68.744 350.464 68.7867 349.099 68.872C347.733 68.9147 346.709 68.9573 346.027 69V67.656C346.88 67.656 347.477 67.4427 347.819 67.016C348.16 66.5893 348.096 66.0773 347.627 65.48L340.267 54.728C339.456 53.576 338.709 52.8293 338.027 52.488C337.387 52.1467 336.448 51.9547 335.211 51.912V50.632C336.576 50.4613 337.685 50.184 338.539 49.8C339.392 49.3733 340.203 48.7547 340.971 47.944L345.707 43.016C347.072 41.608 347.755 40.4987 347.755 39.688C347.755 38.8347 347.307 38.2373 346.411 37.896C345.557 37.512 344.427 37.32 343.019 37.32V36.04C344.128 36.0827 345.365 36.1467 346.731 36.232C348.139 36.2747 349.312 36.296 350.251 36.296C350.976 36.296 351.68 36.296 352.363 36.296C353.045 36.2533 353.685 36.2107 354.283 36.168C354.88 36.1253 355.392 36.0827 355.819 36.04Z" fill="#FB923C"/>
<path d="M10.692 92.512V93.232C9.876 93.256 9.252 93.352 8.82 93.52C8.412 93.664 8.136 93.952 7.992 94.384C7.848 94.792 7.776 95.44 7.776 96.328V114.184C7.776 115.048 7.848 115.696 7.992 116.128C8.136 116.56 8.412 116.848 8.82 116.992C9.252 117.112 9.876 117.172 10.692 117.172H13.32C14.448 117.172 15.36 117.052 16.056 116.812C16.776 116.572 17.34 116.2 17.748 115.696C18.18 115.168 18.504 114.472 18.72 113.608C18.936 112.744 19.104 111.688 19.224 110.44H20.052C19.98 111.184 19.944 112.168 19.944 113.392C19.944 113.848 19.956 114.508 19.98 115.372C20.028 116.212 20.1 117.088 20.196 118C18.972 117.952 17.592 117.928 16.056 117.928C14.52 117.904 13.152 117.892 11.952 117.892C11.424 117.892 10.74 117.892 9.9 117.892C9.084 117.892 8.196 117.904 7.236 117.928C6.276 117.928 5.304 117.94 4.32 117.964C3.336 117.964 2.4 117.976 1.512 118V117.28C2.328 117.232 2.94 117.136 3.348 116.992C3.78 116.848 4.068 116.56 4.212 116.128C4.356 115.696 4.428 115.048 4.428 114.184V96.328C4.428 95.44 4.356 94.792 4.212 94.384C4.068 93.952 3.78 93.664 3.348 93.52C2.94 93.352 2.328 93.256 1.512 93.232V92.512C2.016 92.536 2.676 92.56 3.492 92.584C4.308 92.608 5.184 92.62 6.12 92.62C6.96 92.62 7.788 92.608 8.604 92.584C9.444 92.56 10.14 92.536 10.692 92.512ZM30.9561 98.956C33.0681 98.956 34.7121 99.604 35.8881 100.9C37.0881 102.172 37.6881 104.164 37.6881 106.876H24.9801L24.9441 106.192H34.2321C34.2801 105.016 34.1841 103.936 33.9441 102.952C33.7041 101.944 33.3201 101.14 32.7921 100.54C32.2881 99.94 31.6281 99.64 30.8121 99.64C29.7081 99.64 28.7241 100.192 27.8601 101.296C27.0201 102.4 26.5161 104.152 26.3481 106.552L26.4561 106.696C26.4081 107.056 26.3721 107.452 26.3481 107.884C26.3241 108.316 26.3121 108.748 26.3121 109.18C26.3121 110.812 26.5761 112.216 27.1041 113.392C27.6321 114.568 28.3161 115.468 29.1561 116.092C30.0201 116.692 30.9081 116.992 31.8201 116.992C32.5401 116.992 33.2241 116.884 33.8721 116.668C34.5201 116.428 35.1201 116.044 35.6721 115.516C36.2241 114.988 36.7041 114.28 37.1121 113.392L37.8321 113.68C37.5681 114.472 37.1361 115.24 36.5361 115.984C35.9361 116.728 35.1801 117.34 34.2681 117.82C33.3561 118.276 32.3001 118.504 31.1001 118.504C29.3721 118.504 27.8841 118.108 26.6361 117.316C25.4121 116.524 24.4641 115.432 23.7921 114.04C23.1441 112.624 22.8201 111.004 22.8201 109.18C22.8201 107.068 23.1561 105.256 23.8281 103.744C24.5001 102.208 25.4481 101.032 26.6721 100.216C27.8961 99.376 29.3241 98.956 30.9561 98.956ZM49.239 98.956C50.775 98.956 52.155 99.292 53.379 99.964C54.603 100.636 55.575 101.692 56.295 103.132C57.039 104.572 57.411 106.444 57.411 108.748C57.411 111.052 57.039 112.924 56.295 114.364C55.575 115.78 54.603 116.824 53.379 117.496C52.155 118.168 50.775 118.504 49.239 118.504C47.727 118.504 46.347 118.168 45.099 117.496C43.875 116.824 42.891 115.78 42.147 114.364C41.427 112.924 41.067 111.052 41.067 108.748C41.067 106.444 41.427 104.572 42.147 103.132C42.891 101.692 43.875 100.636 45.099 99.964C46.347 99.292 47.727 98.956 49.239 98.956ZM49.239 99.676C47.871 99.676 46.743 100.384 45.855 101.8C44.991 103.216 44.559 105.532 44.559 108.748C44.559 111.964 44.991 114.28 45.855 115.696C46.743 117.088 47.871 117.784 49.239 117.784C50.607 117.784 51.723 117.088 52.587 115.696C53.475 114.28 53.919 111.964 53.919 108.748C53.919 105.532 53.475 103.216 52.587 101.8C51.723 100.384 50.607 99.676 49.239 99.676ZM72.2377 98.956C73.1497 98.956 73.9057 99.076 74.5057 99.316C75.1297 99.556 75.6457 99.892 76.0537 100.324C76.5097 100.804 76.8337 101.404 77.0257 102.124C77.2177 102.844 77.3137 103.816 77.3137 105.04V114.652C77.3137 115.66 77.5177 116.344 77.9257 116.704C78.3577 117.064 79.0657 117.244 80.0497 117.244V118C79.6417 117.976 79.0177 117.952 78.1777 117.928C77.3377 117.88 76.5217 117.856 75.7297 117.856C74.9377 117.856 74.1577 117.88 73.3897 117.928C72.6457 117.952 72.0817 117.976 71.6977 118V117.244C72.5617 117.244 73.1737 117.064 73.5337 116.704C73.8937 116.344 74.0737 115.66 74.0737 114.652V104.248C74.0737 103.504 74.0137 102.82 73.8937 102.196C73.7737 101.572 73.4977 101.068 73.0657 100.684C72.6577 100.3 72.0217 100.108 71.1577 100.108C70.1497 100.108 69.2617 100.396 68.4937 100.972C67.7497 101.548 67.1617 102.34 66.7297 103.348C66.3217 104.332 66.1177 105.436 66.1177 106.66V114.652C66.1177 115.66 66.2977 116.344 66.6577 116.704C67.0177 117.064 67.6297 117.244 68.4937 117.244V118C68.1097 117.976 67.5337 117.952 66.7657 117.928C66.0217 117.88 65.2537 117.856 64.4617 117.856C63.6697 117.856 62.8537 117.88 62.0137 117.928C61.1737 117.952 60.5497 117.976 60.1417 118V117.244C61.1257 117.244 61.8217 117.064 62.2297 116.704C62.6617 116.344 62.8777 115.66 62.8777 114.652V103.384C62.8777 102.304 62.6857 101.512 62.3017 101.008C61.9177 100.48 61.1977 100.216 60.1417 100.216V99.46C60.9097 99.532 61.6537 99.568 62.3737 99.568C63.0697 99.568 63.7297 99.532 64.3537 99.46C65.0017 99.364 65.5897 99.232 66.1177 99.064V103.312C66.7417 101.68 67.6057 100.552 68.7097 99.928C69.8377 99.28 71.0137 98.956 72.2377 98.956ZM86.7341 118.252C85.7501 118.252 84.8981 118.072 84.1781 117.712C83.4581 117.328 82.9061 116.8 82.5221 116.128C82.1621 115.456 81.9821 114.676 81.9821 113.788C81.9821 112.732 82.2221 111.868 82.7021 111.196C83.2061 110.524 83.8421 109.984 84.6101 109.576C85.3781 109.168 86.1821 108.832 87.0221 108.568C87.8861 108.28 88.7021 108.016 89.4701 107.776C90.2381 107.512 90.8621 107.212 91.3421 106.876C91.8461 106.54 92.0981 106.096 92.0981 105.544V103.312C92.0981 102.304 91.9421 101.536 91.6301 101.008C91.3421 100.48 90.9461 100.132 90.4421 99.964C89.9381 99.772 89.3741 99.676 88.7501 99.676C88.1501 99.676 87.5021 99.76 86.8061 99.928C86.1341 100.096 85.5941 100.444 85.1861 100.972C85.6421 101.068 86.0381 101.308 86.3741 101.692C86.7101 102.076 86.8781 102.568 86.8781 103.168C86.8781 103.768 86.6861 104.248 86.3021 104.608C85.9181 104.944 85.4261 105.112 84.8261 105.112C84.1301 105.112 83.6141 104.896 83.2781 104.464C82.9661 104.008 82.8101 103.504 82.8101 102.952C82.8101 102.328 82.9661 101.824 83.2781 101.44C83.5901 101.056 83.9861 100.696 84.4661 100.36C85.0181 99.976 85.7261 99.652 86.5901 99.388C87.4781 99.1 88.4741 98.956 89.5781 98.956C90.5621 98.956 91.4021 99.076 92.0981 99.316C92.7941 99.532 93.3701 99.856 93.8261 100.288C94.4501 100.864 94.8581 101.572 95.0501 102.412C95.2421 103.228 95.3381 104.212 95.3381 105.364V115.372C95.3381 115.972 95.4221 116.404 95.5901 116.668C95.7821 116.932 96.0701 117.064 96.4541 117.064C96.7181 117.064 96.9701 117.004 97.2101 116.884C97.4501 116.764 97.7381 116.572 98.0741 116.308L98.4701 116.92C97.9661 117.304 97.4861 117.628 97.0301 117.892C96.5741 118.132 95.9621 118.252 95.1941 118.252C94.4981 118.252 93.9221 118.132 93.4661 117.892C93.0101 117.652 92.6621 117.304 92.4221 116.848C92.2061 116.368 92.0981 115.768 92.0981 115.048C91.4501 116.128 90.6701 116.932 89.7581 117.46C88.8701 117.988 87.8621 118.252 86.7341 118.252ZM88.0301 116.812C88.8221 116.812 89.5541 116.584 90.2261 116.128C90.9221 115.672 91.5461 114.988 92.0981 114.076V107.02C91.8101 107.428 91.3901 107.776 90.8381 108.064C90.2861 108.328 89.6861 108.604 89.0381 108.892C88.3901 109.156 87.7661 109.48 87.1661 109.864C86.5901 110.224 86.1101 110.704 85.7261 111.304C85.3421 111.904 85.1501 112.684 85.1501 113.644C85.1501 114.604 85.4021 115.372 85.9061 115.948C86.4341 116.524 87.1421 116.812 88.0301 116.812ZM110.748 98.956C111.396 98.956 111.96 99.088 112.44 99.352C112.944 99.616 113.328 99.964 113.592 100.396C113.88 100.804 114.024 101.272 114.024 101.8C114.024 102.4 113.832 102.928 113.448 103.384C113.088 103.84 112.596 104.068 111.972 104.068C111.468 104.068 111.024 103.912 110.64 103.6C110.256 103.264 110.064 102.796 110.064 102.196C110.064 101.74 110.184 101.356 110.424 101.044C110.688 100.708 110.976 100.444 111.288 100.252C111.12 100.012 110.868 99.892 110.532 99.892C109.788 99.892 109.104 100.12 108.48 100.576C107.856 101.008 107.328 101.572 106.896 102.268C106.464 102.964 106.128 103.708 105.888 104.5C105.648 105.268 105.528 105.988 105.528 106.66V114.292C105.528 115.468 105.864 116.26 106.536 116.668C107.232 117.052 108.168 117.244 109.344 117.244V118C108.792 117.976 108.012 117.952 107.004 117.928C105.996 117.88 104.928 117.856 103.8 117.856C102.984 117.856 102.168 117.88 101.352 117.928C100.56 117.952 99.9598 117.976 99.5518 118V117.244C100.536 117.244 101.232 117.064 101.64 116.704C102.072 116.344 102.288 115.66 102.288 114.652V103.384C102.288 102.304 102.096 101.512 101.712 101.008C101.328 100.48 100.608 100.216 99.5518 100.216V99.46C100.32 99.532 101.064 99.568 101.784 99.568C102.48 99.568 103.14 99.532 103.764 99.46C104.412 99.364 105 99.232 105.528 99.064V103.564C105.792 102.868 106.164 102.172 106.644 101.476C107.148 100.756 107.748 100.156 108.444 99.676C109.14 99.196 109.908 98.956 110.748 98.956ZM131.26 89.776V114.076C131.26 115.156 131.452 115.96 131.836 116.488C132.244 116.992 132.964 117.244 133.996 117.244V118C133.252 117.928 132.508 117.892 131.764 117.892C131.068 117.892 130.396 117.928 129.748 118C129.124 118.072 128.548 118.204 128.02 118.396V94.096C128.02 93.016 127.828 92.224 127.444 91.72C127.06 91.192 126.34 90.928 125.284 90.928V90.172C126.052 90.244 126.796 90.28 127.516 90.28C128.212 90.28 128.872 90.244 129.496 90.172C130.144 90.076 130.732 89.944 131.26 89.776ZM123.7 98.956C124.756 98.956 125.74 99.208 126.652 99.712C127.588 100.216 128.212 101.08 128.524 102.304L128.056 102.664C127.72 101.656 127.192 100.924 126.472 100.468C125.776 100.012 124.948 99.784 123.988 99.784C122.572 99.784 121.384 100.516 120.424 101.98C119.488 103.444 119.032 105.7 119.056 108.748C119.056 110.692 119.236 112.312 119.596 113.608C119.98 114.88 120.532 115.84 121.252 116.488C121.996 117.112 122.896 117.424 123.952 117.424C124.96 117.424 125.872 116.992 126.688 116.128C127.504 115.264 127.996 113.992 128.164 112.312L128.596 112.816C128.404 114.64 127.816 116.044 126.832 117.028C125.872 118.012 124.564 118.504 122.908 118.504C121.42 118.504 120.112 118.144 118.984 117.424C117.88 116.704 117.028 115.624 116.428 114.184C115.852 112.744 115.564 110.932 115.564 108.748C115.564 106.564 115.936 104.752 116.68 103.312C117.448 101.848 118.444 100.756 119.668 100.036C120.916 99.316 122.26 98.956 123.7 98.956ZM144.618 98.956C146.154 98.956 147.534 99.292 148.758 99.964C149.982 100.636 150.954 101.692 151.674 103.132C152.418 104.572 152.79 106.444 152.79 108.748C152.79 111.052 152.418 112.924 151.674 114.364C150.954 115.78 149.982 116.824 148.758 117.496C147.534 118.168 146.154 118.504 144.618 118.504C143.106 118.504 141.726 118.168 140.478 117.496C139.254 116.824 138.27 115.78 137.526 114.364C136.806 112.924 136.446 111.052 136.446 108.748C136.446 106.444 136.806 104.572 137.526 103.132C138.27 101.692 139.254 100.636 140.478 99.964C141.726 99.292 143.106 98.956 144.618 98.956ZM144.618 99.676C143.25 99.676 142.122 100.384 141.234 101.8C140.37 103.216 139.938 105.532 139.938 108.748C139.938 111.964 140.37 114.28 141.234 115.696C142.122 117.088 143.25 117.784 144.618 117.784C145.986 117.784 147.102 117.088 147.966 115.696C148.854 114.28 149.298 111.964 149.298 108.748C149.298 105.532 148.854 103.216 147.966 101.8C147.102 100.384 145.986 99.676 144.618 99.676ZM172.657 92.116C173.857 92.116 174.769 92.26 175.393 92.548C176.017 92.812 176.569 93.112 177.049 93.448C177.337 93.616 177.565 93.748 177.733 93.844C177.925 93.916 178.105 93.952 178.273 93.952C178.513 93.952 178.681 93.82 178.777 93.556C178.897 93.292 178.993 92.896 179.065 92.368H179.893C179.869 92.776 179.833 93.268 179.785 93.844C179.761 94.396 179.737 95.14 179.713 96.076C179.713 96.988 179.713 98.2 179.713 99.712H178.885C178.813 98.56 178.561 97.456 178.129 96.4C177.697 95.344 177.061 94.48 176.221 93.808C175.405 93.136 174.325 92.8 172.981 92.8C171.709 92.8 170.653 93.184 169.813 93.952C168.997 94.72 168.589 95.728 168.589 96.976C168.589 98.056 168.865 98.968 169.417 99.712C169.969 100.432 170.701 101.092 171.613 101.692C172.549 102.268 173.557 102.892 174.637 103.564C175.885 104.332 176.989 105.1 177.949 105.868C178.933 106.612 179.701 107.44 180.253 108.352C180.829 109.264 181.117 110.368 181.117 111.664C181.117 113.2 180.769 114.472 180.073 115.48C179.377 116.488 178.453 117.244 177.301 117.748C176.149 118.252 174.877 118.504 173.485 118.504C172.213 118.504 171.205 118.36 170.461 118.072C169.717 117.784 169.081 117.484 168.553 117.172C168.025 116.836 167.617 116.668 167.329 116.668C167.089 116.668 166.909 116.8 166.789 117.064C166.693 117.328 166.609 117.724 166.537 118.252H165.709C165.757 117.748 165.781 117.16 165.781 116.488C165.805 115.792 165.817 114.892 165.817 113.788C165.841 112.684 165.853 111.292 165.853 109.612H166.681C166.777 111.052 167.041 112.396 167.473 113.644C167.929 114.892 168.613 115.9 169.525 116.668C170.461 117.412 171.697 117.784 173.233 117.784C174.025 117.784 174.769 117.628 175.465 117.316C176.185 116.98 176.773 116.464 177.229 115.768C177.685 115.048 177.913 114.124 177.913 112.996C177.913 112.012 177.673 111.16 177.193 110.44C176.737 109.696 176.089 109.012 175.249 108.388C174.409 107.74 173.425 107.08 172.297 106.408C171.169 105.712 170.113 105.004 169.129 104.284C168.145 103.564 167.353 102.736 166.753 101.8C166.177 100.84 165.889 99.688 165.889 98.344C165.889 96.928 166.201 95.764 166.825 94.852C167.473 93.916 168.313 93.232 169.345 92.8C170.377 92.344 171.481 92.116 172.657 92.116ZM188.031 90.46C188.655 90.46 189.195 90.688 189.651 91.144C190.107 91.6 190.335 92.14 190.335 92.764C190.335 93.388 190.107 93.928 189.651 94.384C189.195 94.84 188.655 95.068 188.031 95.068C187.407 95.068 186.867 94.84 186.411 94.384C185.955 93.928 185.727 93.388 185.727 92.764C185.727 92.14 185.955 91.6 186.411 91.144C186.867 90.688 187.407 90.46 188.031 90.46ZM189.903 99.064V114.652C189.903 115.66 190.107 116.344 190.515 116.704C190.947 117.064 191.655 117.244 192.639 117.244V118C192.231 117.976 191.607 117.952 190.767 117.928C189.951 117.88 189.123 117.856 188.283 117.856C187.467 117.856 186.639 117.88 185.799 117.928C184.959 117.952 184.335 117.976 183.927 118V117.244C184.911 117.244 185.607 117.064 186.015 116.704C186.447 116.344 186.663 115.66 186.663 114.652V103.384C186.663 102.304 186.471 101.512 186.087 101.008C185.703 100.48 184.983 100.216 183.927 100.216V99.46C184.695 99.532 185.439 99.568 186.159 99.568C186.855 99.568 187.515 99.532 188.139 99.46C188.787 99.364 189.375 99.232 189.903 99.064ZM200.198 89.776V114.652C200.198 115.66 200.402 116.344 200.81 116.704C201.242 117.064 201.95 117.244 202.934 117.244V118C202.526 117.976 201.902 117.952 201.062 117.928C200.246 117.88 199.418 117.856 198.578 117.856C197.762 117.856 196.934 117.88 196.094 117.928C195.254 117.952 194.63 117.976 194.222 118V117.244C195.206 117.244 195.902 117.064 196.31 116.704C196.742 116.344 196.958 115.66 196.958 114.652V94.096C196.958 93.016 196.766 92.224 196.382 91.72C195.998 91.192 195.278 90.928 194.222 90.928V90.172C194.99 90.244 195.734 90.28 196.454 90.28C197.15 90.28 197.81 90.244 198.434 90.172C199.082 90.076 199.67 89.944 200.198 89.776ZM221.226 99.46V100.18C220.77 100.228 220.35 100.432 219.966 100.792C219.582 101.152 219.222 101.788 218.886 102.7L212.982 118.18C212.886 118.18 212.79 118.18 212.694 118.18C212.598 118.18 212.49 118.18 212.37 118.18L205.746 102.232C205.362 101.296 204.978 100.732 204.594 100.54C204.234 100.324 203.922 100.216 203.658 100.216V99.46C204.138 99.484 204.63 99.52 205.134 99.568C205.662 99.592 206.226 99.604 206.826 99.604C207.57 99.604 208.35 99.592 209.166 99.568C210.006 99.544 210.786 99.508 211.506 99.46V100.216C210.906 100.216 210.366 100.264 209.886 100.36C209.43 100.432 209.13 100.66 208.986 101.044C208.866 101.428 208.986 102.088 209.346 103.024L213.846 114.148L213.63 114.328L217.734 103.564C218.046 102.772 218.166 102.148 218.094 101.692C218.046 101.212 217.806 100.852 217.374 100.612C216.966 100.372 216.33 100.228 215.466 100.18V99.46C215.898 99.484 216.27 99.508 216.582 99.532C216.894 99.532 217.194 99.544 217.482 99.568C217.794 99.568 218.13 99.568 218.49 99.568C219.042 99.568 219.534 99.556 219.966 99.532C220.422 99.508 220.842 99.484 221.226 99.46ZM227.289 118.252C226.305 118.252 225.453 118.072 224.733 117.712C224.013 117.328 223.461 116.8 223.077 116.128C222.717 115.456 222.537 114.676 222.537 113.788C222.537 112.732 222.777 111.868 223.257 111.196C223.761 110.524 224.397 109.984 225.165 109.576C225.933 109.168 226.737 108.832 227.577 108.568C228.441 108.28 229.257 108.016 230.025 107.776C230.793 107.512 231.417 107.212 231.897 106.876C232.401 106.54 232.653 106.096 232.653 105.544V103.312C232.653 102.304 232.497 101.536 232.185 101.008C231.897 100.48 231.501 100.132 230.997 99.964C230.493 99.772 229.929 99.676 229.305 99.676C228.705 99.676 228.057 99.76 227.361 99.928C226.689 100.096 226.149 100.444 225.741 100.972C226.197 101.068 226.593 101.308 226.929 101.692C227.265 102.076 227.433 102.568 227.433 103.168C227.433 103.768 227.241 104.248 226.857 104.608C226.473 104.944 225.981 105.112 225.381 105.112C224.685 105.112 224.169 104.896 223.833 104.464C223.521 104.008 223.365 103.504 223.365 102.952C223.365 102.328 223.521 101.824 223.833 101.44C224.145 101.056 224.541 100.696 225.021 100.36C225.573 99.976 226.281 99.652 227.145 99.388C228.033 99.1 229.029 98.956 230.133 98.956C231.117 98.956 231.957 99.076 232.653 99.316C233.349 99.532 233.925 99.856 234.381 100.288C235.005 100.864 235.413 101.572 235.605 102.412C235.797 103.228 235.893 104.212 235.893 105.364V115.372C235.893 115.972 235.977 116.404 236.145 116.668C236.337 116.932 236.625 117.064 237.009 117.064C237.273 117.064 237.525 117.004 237.765 116.884C238.005 116.764 238.293 116.572 238.629 116.308L239.025 116.92C238.521 117.304 238.041 117.628 237.585 117.892C237.129 118.132 236.517 118.252 235.749 118.252C235.053 118.252 234.477 118.132 234.021 117.892C233.565 117.652 233.217 117.304 232.977 116.848C232.761 116.368 232.653 115.768 232.653 115.048C232.005 116.128 231.225 116.932 230.313 117.46C229.425 117.988 228.417 118.252 227.289 118.252ZM228.585 116.812C229.377 116.812 230.109 116.584 230.781 116.128C231.477 115.672 232.101 114.988 232.653 114.076V107.02C232.365 107.428 231.945 107.776 231.393 108.064C230.841 108.328 230.241 108.604 229.593 108.892C228.945 109.156 228.321 109.48 227.721 109.864C227.145 110.224 226.665 110.704 226.281 111.304C225.897 111.904 225.705 112.684 225.705 113.644C225.705 114.604 225.957 115.372 226.461 115.948C226.989 116.524 227.697 116.812 228.585 116.812ZM245.903 93.484V99.496H251.231V100.216H245.903V114.148C245.903 115.276 246.107 116.068 246.515 116.524C246.923 116.98 247.487 117.208 248.207 117.208C248.927 117.208 249.551 116.92 250.079 116.344C250.607 115.744 251.063 114.748 251.447 113.356L252.167 113.536C251.927 114.928 251.447 116.104 250.727 117.064C250.031 118.024 248.951 118.504 247.487 118.504C246.671 118.504 245.999 118.396 245.471 118.18C244.943 117.988 244.475 117.7 244.067 117.316C243.539 116.764 243.167 116.104 242.951 115.336C242.759 114.568 242.663 113.548 242.663 112.276V100.216H239.207V99.496H242.663V93.988C243.263 93.964 243.839 93.916 244.391 93.844C244.943 93.772 245.447 93.652 245.903 93.484ZM257.188 93.484V99.496H262.516V100.216H257.188V114.148C257.188 115.276 257.392 116.068 257.8 116.524C258.208 116.98 258.772 117.208 259.492 117.208C260.212 117.208 260.836 116.92 261.364 116.344C261.892 115.744 262.348 114.748 262.732 113.356L263.452 113.536C263.212 114.928 262.732 116.104 262.012 117.064C261.316 118.024 260.236 118.504 258.772 118.504C257.956 118.504 257.284 118.396 256.756 118.18C256.228 117.988 255.76 117.7 255.352 117.316C254.824 116.764 254.452 116.104 254.236 115.336C254.044 114.568 253.948 113.548 253.948 112.276V100.216H250.492V99.496H253.948V93.988C254.548 93.964 255.124 93.916 255.676 93.844C256.228 93.772 256.732 93.652 257.188 93.484ZM268.222 90.46C268.846 90.46 269.386 90.688 269.842 91.144C270.298 91.6 270.526 92.14 270.526 92.764C270.526 93.388 270.298 93.928 269.842 94.384C269.386 94.84 268.846 95.068 268.222 95.068C267.598 95.068 267.058 94.84 266.602 94.384C266.146 93.928 265.918 93.388 265.918 92.764C265.918 92.14 266.146 91.6 266.602 91.144C267.058 90.688 267.598 90.46 268.222 90.46ZM270.094 99.064V114.652C270.094 115.66 270.298 116.344 270.706 116.704C271.138 117.064 271.846 117.244 272.83 117.244V118C272.422 117.976 271.798 117.952 270.958 117.928C270.142 117.88 269.314 117.856 268.474 117.856C267.658 117.856 266.83 117.88 265.99 117.928C265.15 117.952 264.526 117.976 264.118 118V117.244C265.102 117.244 265.798 117.064 266.206 116.704C266.638 116.344 266.854 115.66 266.854 114.652V103.384C266.854 102.304 266.662 101.512 266.278 101.008C265.894 100.48 265.174 100.216 264.118 100.216V99.46C264.886 99.532 265.63 99.568 266.35 99.568C267.046 99.568 267.706 99.532 268.33 99.46C268.978 99.364 269.566 99.232 270.094 99.064ZM291.802 92.116C293.002 92.116 293.914 92.26 294.538 92.548C295.162 92.812 295.714 93.112 296.194 93.448C296.482 93.616 296.71 93.748 296.878 93.844C297.07 93.916 297.25 93.952 297.418 93.952C297.658 93.952 297.826 93.82 297.922 93.556C298.042 93.292 298.138 92.896 298.21 92.368H299.038C299.014 92.776 298.978 93.268 298.93 93.844C298.906 94.396 298.882 95.14 298.858 96.076C298.858 96.988 298.858 98.2 298.858 99.712H298.03C297.958 98.56 297.706 97.456 297.274 96.4C296.842 95.344 296.206 94.48 295.366 93.808C294.55 93.136 293.47 92.8 292.126 92.8C290.854 92.8 289.798 93.184 288.958 93.952C288.142 94.72 287.734 95.728 287.734 96.976C287.734 98.056 288.01 98.968 288.562 99.712C289.114 100.432 289.846 101.092 290.758 101.692C291.694 102.268 292.702 102.892 293.782 103.564C295.03 104.332 296.134 105.1 297.094 105.868C298.078 106.612 298.846 107.44 299.398 108.352C299.974 109.264 300.262 110.368 300.262 111.664C300.262 113.2 299.914 114.472 299.218 115.48C298.522 116.488 297.598 117.244 296.446 117.748C295.294 118.252 294.022 118.504 292.63 118.504C291.358 118.504 290.35 118.36 289.606 118.072C288.862 117.784 288.226 117.484 287.698 117.172C287.17 116.836 286.762 116.668 286.474 116.668C286.234 116.668 286.054 116.8 285.934 117.064C285.838 117.328 285.754 117.724 285.682 118.252H284.854C284.902 117.748 284.926 117.16 284.926 116.488C284.95 115.792 284.962 114.892 284.962 113.788C284.986 112.684 284.998 111.292 284.998 109.612H285.826C285.922 111.052 286.186 112.396 286.618 113.644C287.074 114.892 287.758 115.9 288.67 116.668C289.606 117.412 290.842 117.784 292.378 117.784C293.17 117.784 293.914 117.628 294.61 117.316C295.33 116.98 295.918 116.464 296.374 115.768C296.83 115.048 297.058 114.124 297.058 112.996C297.058 112.012 296.818 111.16 296.338 110.44C295.882 109.696 295.234 109.012 294.394 108.388C293.554 107.74 292.57 107.08 291.442 106.408C290.314 105.712 289.258 105.004 288.274 104.284C287.29 103.564 286.498 102.736 285.898 101.8C285.322 100.84 285.034 99.688 285.034 98.344C285.034 96.928 285.346 95.764 285.97 94.852C286.618 93.916 287.458 93.232 288.49 92.8C289.522 92.344 290.626 92.116 291.802 92.116ZM307.175 90.46C307.799 90.46 308.339 90.688 308.795 91.144C309.251 91.6 309.479 92.14 309.479 92.764C309.479 93.388 309.251 93.928 308.795 94.384C308.339 94.84 307.799 95.068 307.175 95.068C306.551 95.068 306.011 94.84 305.555 94.384C305.099 93.928 304.871 93.388 304.871 92.764C304.871 92.14 305.099 91.6 305.555 91.144C306.011 90.688 306.551 90.46 307.175 90.46ZM309.047 99.064V114.652C309.047 115.66 309.251 116.344 309.659 116.704C310.091 117.064 310.799 117.244 311.783 117.244V118C311.375 117.976 310.751 117.952 309.911 117.928C309.095 117.88 308.267 117.856 307.427 117.856C306.611 117.856 305.783 117.88 304.943 117.928C304.103 117.952 303.479 117.976 303.071 118V117.244C304.055 117.244 304.751 117.064 305.159 116.704C305.591 116.344 305.807 115.66 305.807 114.652V103.384C305.807 102.304 305.615 101.512 305.231 101.008C304.847 100.48 304.127 100.216 303.071 100.216V99.46C303.839 99.532 304.583 99.568 305.303 99.568C305.999 99.568 306.659 99.532 307.283 99.46C307.931 99.364 308.519 99.232 309.047 99.064ZM319.342 89.776V114.652C319.342 115.66 319.546 116.344 319.954 116.704C320.386 117.064 321.094 117.244 322.078 117.244V118C321.67 117.976 321.046 117.952 320.206 117.928C319.39 117.88 318.562 117.856 317.722 117.856C316.906 117.856 316.078 117.88 315.238 117.928C314.398 117.952 313.774 117.976 313.366 118V117.244C314.35 117.244 315.046 117.064 315.454 116.704C315.886 116.344 316.102 115.66 316.102 114.652V94.096C316.102 93.016 315.91 92.224 315.526 91.72C315.142 91.192 314.422 90.928 313.366 90.928V90.172C314.134 90.244 314.878 90.28 315.598 90.28C316.294 90.28 316.954 90.244 317.578 90.172C318.226 90.076 318.814 89.944 319.342 89.776ZM340.371 99.46V100.18C339.915 100.228 339.495 100.432 339.111 100.792C338.727 101.152 338.367 101.788 338.031 102.7L332.127 118.18C332.031 118.18 331.935 118.18 331.839 118.18C331.743 118.18 331.635 118.18 331.515 118.18L324.891 102.232C324.507 101.296 324.123 100.732 323.739 100.54C323.379 100.324 323.067 100.216 322.803 100.216V99.46C323.283 99.484 323.775 99.52 324.279 99.568C324.807 99.592 325.371 99.604 325.971 99.604C326.715 99.604 327.495 99.592 328.311 99.568C329.151 99.544 329.931 99.508 330.651 99.46V100.216C330.051 100.216 329.511 100.264 329.031 100.36C328.575 100.432 328.275 100.66 328.131 101.044C328.011 101.428 328.131 102.088 328.491 103.024L332.991 114.148L332.775 114.328L336.879 103.564C337.191 102.772 337.311 102.148 337.239 101.692C337.191 101.212 336.951 100.852 336.519 100.612C336.111 100.372 335.475 100.228 334.611 100.18V99.46C335.043 99.484 335.415 99.508 335.727 99.532C336.039 99.532 336.339 99.544 336.627 99.568C336.939 99.568 337.275 99.568 337.635 99.568C338.187 99.568 338.679 99.556 339.111 99.532C339.567 99.508 339.987 99.484 340.371 99.46ZM346.433 118.252C345.449 118.252 344.597 118.072 343.877 117.712C343.157 117.328 342.605 116.8 342.221 116.128C341.861 115.456 341.681 114.676 341.681 113.788C341.681 112.732 341.921 111.868 342.401 111.196C342.905 110.524 343.541 109.984 344.309 109.576C345.077 109.168 345.881 108.832 346.721 108.568C347.585 108.28 348.401 108.016 349.169 107.776C349.937 107.512 350.561 107.212 351.041 106.876C351.545 106.54 351.797 106.096 351.797 105.544V103.312C351.797 102.304 351.641 101.536 351.329 101.008C351.041 100.48 350.645 100.132 350.141 99.964C349.637 99.772 349.073 99.676 348.449 99.676C347.849 99.676 347.201 99.76 346.505 99.928C345.833 100.096 345.293 100.444 344.885 100.972C345.341 101.068 345.737 101.308 346.073 101.692C346.409 102.076 346.577 102.568 346.577 103.168C346.577 103.768 346.385 104.248 346.001 104.608C345.617 104.944 345.125 105.112 344.525 105.112C343.829 105.112 343.313 104.896 342.977 104.464C342.665 104.008 342.509 103.504 342.509 102.952C342.509 102.328 342.665 101.824 342.977 101.44C343.289 101.056 343.685 100.696 344.165 100.36C344.717 99.976 345.425 99.652 346.289 99.388C347.177 99.1 348.173 98.956 349.277 98.956C350.261 98.956 351.101 99.076 351.797 99.316C352.493 99.532 353.069 99.856 353.525 100.288C354.149 100.864 354.557 101.572 354.749 102.412C354.941 103.228 355.037 104.212 355.037 105.364V115.372C355.037 115.972 355.121 116.404 355.289 116.668C355.481 116.932 355.769 117.064 356.153 117.064C356.417 117.064 356.669 117.004 356.909 116.884C357.149 116.764 357.437 116.572 357.773 116.308L358.169 116.92C357.665 117.304 357.185 117.628 356.729 117.892C356.273 118.132 355.661 118.252 354.893 118.252C354.197 118.252 353.621 118.132 353.165 117.892C352.709 117.652 352.361 117.304 352.121 116.848C351.905 116.368 351.797 115.768 351.797 115.048C351.149 116.128 350.369 116.932 349.457 117.46C348.569 117.988 347.561 118.252 346.433 118.252ZM347.729 116.812C348.521 116.812 349.253 116.584 349.925 116.128C350.621 115.672 351.245 114.988 351.797 114.076V107.02C351.509 107.428 351.089 107.776 350.537 108.064C349.985 108.328 349.385 108.604 348.737 108.892C348.089 109.156 347.465 109.48 346.865 109.864C346.289 110.224 345.809 110.704 345.425 111.304C345.041 111.904 344.849 112.684 344.849 113.644C344.849 114.604 345.101 115.372 345.605 115.948C346.133 116.524 346.841 116.812 347.729 116.812Z" fill="#A78BFA"/>
</svg>
