<svg xmlns="http://www.w3.org/2000/svg" width="62" height="62" fill="none" viewBox="0 0 62 62"><ellipse cx="30.508" cy="31" fill="#a78bfa" rx="30.508" ry="31"/><ellipse cx="21.651" cy="31" fill="#fb923c" rx="21.651" ry="22"/><path fill="#e8e6f0" d="M47.95 8q2.99 0 4.544.737 1.555.675 2.75 1.534.718.43 1.136.676.48.184.897.184.599 0 .837-.675.3-.675.478-2.026h1.375q-.06 1.044-.179 2.517-.06 1.412-.12 3.806v6.2h-1.375a18.1 18.1 0 0 0-1.255-5.647q-1.076-2.702-3.169-4.42-2.032-1.72-5.38-1.72-3.168 0-5.261 1.965-2.033 1.965-2.033 5.157 0 2.763 1.375 4.666 1.376 1.841 3.647 3.376 2.333 1.473 5.022 3.193 3.11 1.965 5.5 3.929 2.452 1.902 3.826 4.236Q62 38.02 62 41.336q0 3.928-1.734 6.507t-4.603 3.868T49.326 53q-3.168 0-5.022-.737-1.853-.735-3.168-1.535-1.316-.858-2.033-.859-.598 0-.897.675-.24.675-.418 2.026h-1.375q.12-1.29.12-3.008.06-1.78.059-4.604.06-2.825.06-7.122h1.375q.24 3.684 1.315 6.876 1.136 3.192 3.408 5.157 2.332 1.903 6.157 1.903 1.974 0 3.707-.798 1.793-.86 2.93-2.64 1.135-1.842 1.135-4.727 0-2.516-1.195-4.359-1.137-1.903-3.229-3.499-2.093-1.657-4.902-3.377a80 80 0 0 1-5.26-3.622q-2.452-1.841-3.947-4.236-1.434-2.455-1.434-5.893 0-3.623 1.554-5.955 1.614-2.394 4.185-3.5Q45.02 8 47.95 8M15.473 9v1.215q-2.063.06-3.155.486-1.032.363-1.396 1.457-.364 1.033-.364 3.28v30.124q0 2.187.364 3.28.364 1.094 1.396 1.457 1.092.304 3.155.304h4.43q2.85 0 4.611-.607 1.82-.608 2.852-1.883 1.092-1.336 1.638-3.523.546-2.186.85-5.344h1.395q-.182 1.883-.182 4.98 0 1.155.061 3.34.12 2.126.364 4.434a180 180 0 0 0-6.978-.121q-3.884-.061-6.917-.061h-3.459q-2.063 0-4.49.06-2.427 0-4.915.061Q2.245 51.94 0 52v-1.215q2.063-.12 3.095-.486 1.092-.363 1.456-1.457.364-1.093.364-3.28V15.438q0-2.247-.364-3.28-.364-1.093-1.456-1.457-1.032-.426-3.095-.486V9q1.275.06 3.337.121a151 151 0 0 0 8.617 0A244 244 0 0 0 15.473 9"/></svg>